<svg xmlns="http://www.w3.org/2000/svg" width="144" height="23" viewBox="0 0 144 23"><path d="M-.01 23.01V-.01H144v23.02H-.01zM142.32 1.65H1.67v19.7h140.65V1.65zM19.9 5.43v12.14h-1.93v-7l-3.81 4.45-3.83-4.45v7h-1.9V5.43l5.73 6.66 5.74-6.66zm10.35 0c1.61 0 2.55.65 3.04 1.21.64.7.98 1.69.98 2.81s-.34 2.1-.98 2.8c-.3.33-.76.71-1.41.94l3.28 4.38h-2.15l-3.07-4.11h-1.4v4.11h-1.91V5.43h3.62zm-1.71 6.33h1.71c.79 0 1.38-.22 1.76-.65.46-.49.54-1.18.54-1.66s-.08-1.17-.54-1.67c-.38-.42-.97-.63-1.76-.63h-1.71v4.61zm13.08 3.52c.62 0 1.15.53 1.15 1.15 0 .64-.53 1.14-1.15 1.14-.64 0-1.15-.5-1.15-1.14 0-.62.51-1.15 1.15-1.15zm10.89-9.85c1.34 0 2.12.54 2.55 1.01.53.6.82 1.4.82 2.33 0 .85-.23 1.59-.67 2.16.29.18.52.38.69.57.57.64.88 1.49.88 2.49 0 1.01-.31 1.86-.88 2.5-.44.49-1.28 1.08-2.71 1.08h-2.45-1.71V5.43h3.48zm-1.57 10.42h2.25c.64 0 1.13-.16 1.44-.5.37-.4.43-.95.43-1.36 0-.4-.06-.95-.43-1.35-.31-.34-.8-.5-1.44-.5h-2.25v3.71zm0-5.43h1.57c.58 0 .99-.16 1.27-.46.31-.34.38-.83.38-1.19 0-.35-.07-.84-.38-1.18-.28-.3-.69-.46-1.27-.46h-1.57v3.29zm15.43-4.99c1.61 0 2.54.65 3.04 1.21.64.7.98 1.69.98 2.81s-.34 2.1-.98 2.8c-.3.33-.76.71-1.42.94l3.29 4.38h-2.15l-3.07-4.11h-1.4v4.11h-1.91V5.43h3.62zm-1.71 6.33h1.71c.79 0 1.38-.22 1.75-.65.46-.49.55-1.18.55-1.66s-.09-1.17-.55-1.67c-.37-.42-.96-.63-1.75-.63h-1.71v4.61zm13.7-4.56c.56-.56 1.2-.99 1.94-1.29.74-.32 1.55-.48 2.37-.48.82 0 1.62.16 2.38.48.72.3 1.36.73 1.94 1.29.55.57.98 1.21 1.29 1.93.32.75.48 1.55.48 2.37 0 .82-.16 1.62-.48 2.36-.31.73-.74 1.37-1.29 1.93-.58.55-1.22 1-1.94 1.31-.76.31-1.56.47-2.38.47-.82 0-1.63-.16-2.37-.47-.74-.31-1.38-.76-1.94-1.31-.56-.56-1-1.2-1.31-1.93-.32-.74-.48-1.54-.48-2.36 0-.82.16-1.62.48-2.37.31-.72.75-1.36 1.31-1.93zm1.35 7.25c.79.78 1.84 1.22 2.96 1.22 1.11 0 2.16-.44 2.95-1.22.79-.79 1.24-1.84 1.24-2.95s-.45-2.16-1.24-2.94c-.79-.79-1.84-1.23-2.95-1.23-1.12 0-2.17.44-2.96 1.23-.79.78-1.24 1.83-1.24 2.94 0 1.11.45 2.16 1.24 2.95zM96.24 7.2c.56-.56 1.2-.99 1.94-1.29.74-.32 1.54-.48 2.36-.48.83 0 1.63.16 2.39.48.72.3 1.36.73 1.94 1.29.55.57.98 1.21 1.29 1.93.31.75.48 1.55.48 2.37 0 .82-.17 1.62-.48 2.36-.31.73-.74 1.37-1.29 1.93-.58.55-1.22 1-1.94 1.31-.76.31-1.56.47-2.39.47-.82 0-1.62-.16-2.36-.47-.74-.31-1.38-.76-1.94-1.31-.56-.56-1-1.2-1.31-1.93-.32-.74-.48-1.54-.48-2.36 0-.82.16-1.62.48-2.37.31-.72.75-1.36 1.31-1.93zm1.34 7.25c.8.78 1.85 1.22 2.96 1.22 1.12 0 2.17-.44 2.96-1.22.79-.79 1.23-1.84 1.23-2.95s-.44-2.16-1.23-2.94c-.79-.79-1.84-1.23-2.96-1.23-1.11 0-2.16.44-2.96 1.23-.78.78-1.22 1.83-1.22 2.94 0 1.11.44 2.16 1.22 2.95zm17.21-4.01l3.91-5.01h2.4l-4.47 5.84 5.38 6.3h-2.39l-4.83-5.5v5.5h-1.9V5.43h1.9v5.01zm16.11 5.31c.72.07 1.38-.09 1.9-.44.71-.45 1.07-1.21.92-1.86-.18-.77-1.05-1.29-2.37-1.46-.95-.11-1.75-.41-2.38-.86-.59-.47-1.02-1.05-1.2-1.72-.16-.59-.13-1.22.08-1.8.2-.59.58-1.1 1.07-1.48.61-.45 1.35-.7 2.17-.7.88 0 1.78.28 2.7.82l-.91 1.53c-.64-.35-1.24-.55-1.79-.55-.41 0-.78.11-1.06.33-.22.16-.38.39-.48.63-.09.25-.1.51-.04.74.2.67.94 1.15 2.06 1.28 1.07.13 1.95.44 2.63.95.65.49 1.1 1.13 1.28 1.86.16.71.08 1.44-.23 2.13-.31.67-.8 1.24-1.45 1.67-.75.49-1.64.75-2.59.75-.15 0-.31-.01-.46-.01-1.25-.12-2.53-.63-3.8-1.56l1.07-1.44c1 .72 1.96 1.11 2.88 1.19z" fill="#F7F7F7"/></svg>