<svg xmlns="http://www.w3.org/2000/svg" width="113" height="26" viewBox="0 0 113 26"><path d="M-.01 18.2V0H113v18.2H-.01zM111.68 1.31H1.31v15.58h110.37V1.31zM15.61 4.3v9.6H14.1V8.36l-2.99 3.52-3-3.52v5.54h-1.5V4.3l4.5 5.27 4.5-5.27zm8.13 0c1.26 0 2 .52 2.38.96.51.56.78 1.33.78 2.22 0 .88-.27 1.66-.78 2.22-.23.26-.59.55-1.11.74l2.58 3.46H25.9l-2.41-3.24H22.4v3.24h-1.5V4.3h2.84zM22.4 9.31h1.34c.62 0 1.08-.18 1.38-.52.36-.39.42-.93.42-1.31s-.06-.93-.42-1.32c-.3-.33-.76-.5-1.38-.5H22.4v3.65zm10.26 2.78c.49 0 .9.42.9.91 0 .5-.41.9-.9.9-.5 0-.9-.4-.9-.9 0-.49.4-.91.9-.91zm8.55-7.79c1.04 0 1.66.43 2 .8.41.47.64 1.11.64 1.84 0 .68-.18 1.26-.53 1.71.24.14.42.3.55.45.45.51.69 1.18.69 1.97 0 .8-.24 1.47-.69 1.98-.35.39-1.01.85-2.13.85h-1.92-1.35V4.3h2.74zm-1.24 8.24h1.77c.5 0 .89-.13 1.13-.4.29-.31.34-.75.34-1.07 0-.31-.05-.75-.34-1.06-.24-.27-.63-.4-1.13-.4h-1.77v2.93zm0-4.29h1.24c.45 0 .77-.13.99-.36.25-.27.3-.66.3-.95 0-.27-.05-.66-.3-.93-.22-.23-.54-.36-.99-.36h-1.24v2.6zM52.08 4.3c1.26 0 2 .52 2.38.96.51.56.78 1.33.78 2.22 0 .88-.27 1.66-.78 2.22-.23.26-.59.55-1.1.74l2.57 3.46h-1.68l-2.41-3.24h-1.1v3.24h-1.5V4.3h2.84zm-1.34 5.01h1.34c.62 0 1.08-.18 1.38-.52.36-.39.42-.93.42-1.31s-.06-.93-.42-1.32c-.3-.33-.76-.5-1.38-.5h-1.34v3.65zM61.49 5.7c.44-.44.94-.78 1.52-1.02.58-.25 1.22-.38 1.86-.38.65 0 1.28.13 1.87.38.56.24 1.07.58 1.52 1.02.44.45.77.96 1.02 1.53.24.59.37 1.23.37 1.87 0 .65-.13 1.28-.37 1.87-.25.58-.58 1.08-1.02 1.52-.45.44-.96.79-1.52 1.04-.59.24-1.22.37-1.87.37-.64 0-1.28-.13-1.86-.37-.58-.25-1.08-.6-1.52-1.04-.44-.44-.78-.94-1.03-1.52-.25-.59-.37-1.22-.37-1.87 0-.64.12-1.28.37-1.87.25-.57.59-1.08 1.03-1.53zm1.06 5.73c.62.62 1.44.97 2.32.97.88 0 1.7-.35 2.32-.97.62-.62.97-1.45.97-2.33 0-.88-.35-1.71-.97-2.33-.62-.62-1.44-.97-2.32-.97-.88 0-1.7.35-2.32.97-.62.62-.97 1.45-.97 2.33 0 .88.35 1.71.97 2.33zM75.52 5.7c.44-.44.94-.78 1.52-1.02.58-.25 1.21-.38 1.86-.38.65 0 1.27.13 1.87.38.57.24 1.07.58 1.52 1.02.44.45.77.96 1.02 1.53.24.59.37 1.23.37 1.87 0 .65-.13 1.28-.37 1.87-.25.58-.58 1.08-1.02 1.52-.45.44-.95.79-1.52 1.04-.6.24-1.22.37-1.87.37-.65 0-1.28-.13-1.86-.37-.58-.25-1.08-.6-1.52-1.04-.44-.44-.79-.94-1.03-1.52-.24-.59-.37-1.22-.37-1.87 0-.64.13-1.28.37-1.87.24-.57.59-1.08 1.03-1.53zm1.06 5.73c.62.62 1.44.97 2.32.97.88 0 1.7-.35 2.32-.97.62-.62.97-1.45.97-2.33 0-.88-.35-1.71-.97-2.33-.62-.62-1.44-.97-2.32-.97-.88 0-1.7.35-2.32.97-.62.62-.97 1.45-.97 2.33 0 .88.35 1.71.97 2.33zm13.5-3.17l3.07-3.96h1.88l-3.51 4.62 4.22 4.98h-1.87l-3.79-4.34v4.34h-1.49V4.3h1.49v3.96zm12.64 4.2c.56.06 1.08-.07 1.49-.34.56-.37.84-.96.72-1.48-.14-.6-.82-1.02-1.85-1.15-.75-.09-1.38-.32-1.87-.68-.47-.37-.8-.83-.94-1.36-.13-.47-.11-.96.06-1.43.16-.46.45-.86.84-1.16.47-.36 1.05-.56 1.7-.56.69 0 1.39.22 2.11.65l-.7 1.21c-.51-.28-.98-.43-1.41-.43-.32 0-.62.09-.84.26-.17.12-.29.3-.37.5-.07.2-.08.4-.03.58.16.53.74.91 1.61 1.01.84.1 1.54.35 2.07.75.51.39.86.89 1 1.47.13.56.07 1.14-.18 1.69-.24.53-.63.98-1.13 1.32-.59.39-1.29.59-2.04.59-.11 0-.24-.01-.36-.01-.98-.09-1.98-.49-2.98-1.23l.84-1.14c.79.57 1.54.88 2.26.94zM8.91 22.79c.21.17.31.43.31.78 0 .37-.12.64-.35.82-.23.18-.55.27-.96.27h-.72v1.24h-.62v-3.38h1.34c.46 0 .79.09 1 .27zm-1.72.25v1.1h.71c.24.01.42-.04.52-.13.11-.09.17-.22.17-.41-.01-.19-.06-.34-.17-.43-.12-.08-.28-.13-.51-.13h-.72zm8.15-.28c.2.15.3.39.3.7 0 .21-.05.39-.15.53-.1.15-.24.25-.41.29v.01c.17.06.3.16.38.29.07.13.11.32.12.59 0 .29 0 .47.02.54.02.07.05.13.1.19h-.63c-.05-.07-.08-.14-.09-.22-.01-.08-.02-.24-.02-.48 0-.25-.06-.42-.17-.51-.11-.09-.29-.13-.54-.13h-.71v1.34h-.62v-3.38h1.51c.4.01.71.09.91.24zm-1.8.28v1.01h.77c.25 0 .43-.04.54-.13.11-.08.16-.21.16-.38s-.06-.3-.17-.38c-.11-.08-.28-.12-.52-.12h-.78zm6.54 2.86h-.61v-3.38h.61v3.38zm5.05-.64l.84-2.74h.67l-1.16 3.38h-.71l-1.16-3.38h.67l.85 2.74zm6.29-2.74l1.27 3.38h-.66l-.24-.71h-1.36l-.24.71h-.65l1.26-3.38h.62zm.2 2.16l-.51-1.5-.5 1.5h1.01zm6.6-1.64h-1.06v2.86h-.62v-2.86h-1.05v-.52h2.73v.52zm6.13 0h-1.9v.87h1.71v.51h-1.71v.97h1.96v.51h-2.58v-3.38h2.52v.52zm9.78 2.04l.92-2.56h.92v3.38h-.62v-2.54l.01-.13h-.01l-.99 2.67h-.46l-.99-2.67h-.01l.01.13v2.54h-.61v-3.38h.91l.92 2.56zm7.25-2.56l1.27 3.38H62l-.24-.71H60.4l-.24.71h-.66l1.27-3.38h.61zm.2 2.16l-.5-1.5-.51 1.5h1.01zm7.02-1.92c.2.15.31.39.31.7 0 .21-.06.39-.16.53-.1.15-.24.25-.41.29v.01c.17.06.3.16.38.29.07.13.11.32.12.59 0 .29 0 .47.02.54.02.07.05.13.1.19h-.63c-.05-.07-.08-.14-.09-.22-.01-.08-.02-.24-.02-.48 0-.25-.06-.42-.17-.51-.11-.09-.29-.13-.54-.13h-.71v1.34h-.62v-3.38h1.51c.4.01.71.09.91.24zm-1.8.28v1.01h.77c.25 0 .43-.04.54-.13.11-.08.16-.21.16-.38s-.06-.3-.17-.38c-.11-.08-.28-.12-.52-.12h-.78zm6.54 1l1.47-1.52h.83l-1.41 1.38 1.5 2h-.82l-1.12-1.56-.45.44v1.12h-.61v-3.38h.61v1.52zm8.44-1h-1.9v.87h1.71v.51h-1.71v.97h1.96v.51h-2.58v-3.38h2.52v.52zm6.07 0H86.8v2.86h-.62v-2.86h-1.06v-.52h2.73v.52zm4.23 2.86h-.62v-3.38h.62v3.38zm6.23-.98v-2.4h.61v3.38h-.65l-1.62-2.4v2.4h-.61v-3.38h.65l1.62 2.4zm6.03-2.5c.42 0 .75.1 1.01.28.26.19.4.48.44.87h-.61c-.03-.19-.11-.34-.25-.46s-.34-.18-.59-.18c-.31 0-.56.11-.74.33-.17.22-.26.55-.26.99 0 .41.1.71.3.92.2.21.44.32.74.32.28 0 .49-.08.65-.24.15-.16.24-.37.24-.65h-.82v-.51h1.38v1.81h-.45v-.46h-.01c-.09.18-.22.32-.4.42-.17.09-.39.14-.64.14-.51 0-.91-.15-1.2-.45-.3-.3-.44-.73-.44-1.28 0-.57.14-1.02.42-1.35.28-.33.69-.49 1.23-.5z" fill="#E1BB99"/></svg>