<?xml version="1.0" encoding="utf-8"?>
<svg xmlns="http://www.w3.org/2000/svg"
	xmlns:xlink="http://www.w3.org/1999/xlink"
	width="227px" height="239px" viewBox="0 0 227 239">
<path fillRule="evenodd" d="M 220.1 232.14C 219.51 232.14 217.28 232.14 217.28 232.14 217.28 232.14 217.28 235.96 217.28 235.96 217.28 235.96 218.43 235.96 218.43 235.96 218.43 235.96 218.43 238.7 218.43 238.7 218.43 238.7 212.46 238.7 212.46 238.7 212.46 238.7 212.46 235.96 212.46 235.96 212.46 235.96 213.62 235.96 213.62 235.96 213.62 235.96 213.62 222.44 213.62 222.44 213.62 222.44 212.46 222.44 212.46 222.44 212.46 222.44 212.46 219.71 212.46 219.71 212.46 219.71 220.12 219.71 220.12 219.71 228.99 219.71 229.04 232.14 220.1 232.14ZM 219.56 222.44C 219.56 222.44 217.28 222.44 217.28 222.44 217.28 222.44 217.28 229.4 217.28 229.4 217.28 229.4 219.56 229.4 219.56 229.4 219.56 229.4 223.12 229.4 223.12 225.94 223.12 222.44 219.56 222.44 219.56 222.44ZM 178.38 189.55C 178.38 189.55 59.5 189.55 59.5 189.55 59.5 189.55 75.68 157.63 75.68 157.63 75.68 157.63 162 157.63 162 157.63 162 157.63 145.83 126.11 145.83 126.11 145.83 126.11 91.66 126.11 91.66 126.11 91.66 126.11 107.63 94.58 107.63 94.58 107.63 94.58 129.66 94.58 129.66 94.58 129.66 94.58 97.79 32.06 97.79 32.06 97.79 32.06 114.04-0 114.04-0 114.04-0 210.28 189.55 210.28 189.55 210.28 189.55 186.49 189.55 186.49 189.55 186.49 189.55 178.38 189.55 178.38 189.55ZM 82.65 126.11C 82.65 126.11 82.57 126.11 82.57 126.11 82.57 126.11 66.5 157.63 66.5 157.63 66.5 157.63 66.73 157.63 66.73 157.63 66.73 157.63 50.62 189.55 50.62 189.55 50.62 189.55 50.24 189.55 50.24 189.55 50.24 189.55 18.34 189.55 18.34 189.55 18.34 189.55 93.47 40.74 93.47 40.74 93.47 40.74 109.66 72.61 109.66 72.61 109.66 72.61 82.65 126.11 82.65 126.11ZM 23.08 220.41C 23.08 220.41 21.01 222.57 21.01 222.57 24.46 223.3 24.19 228.28 20.1 228.28 19.01 228.28 17.89 227.78 17.44 226.71 17.44 226.71 18.73 226.22 18.73 226.22 19.46 227.39 21.66 227.02 21.66 225.48 21.66 223.89 20.32 223.37 18.82 224.03 18.82 224.03 18.82 223.03 18.82 223.03 18.82 223.03 21.29 220.41 21.29 220.41 21.29 220.41 18.63 220.41 18.63 220.41 18.63 220.41 18.63 220.94 18.63 220.94 18.63 220.94 17.39 220.94 17.39 220.94 17.39 220.94 17.39 219.1 17.39 219.1 17.39 219.1 23.08 219.1 23.08 219.1 23.08 220.09 23.08 219.86 23.08 220.41ZM 18.5 238.7C 18.5 238.7 14.58 238.7 14.58 238.7 14.58 238.7 12.94 233.96 12.94 233.96 12.94 233.96 6.38 233.96 6.38 233.96 6.38 233.96 4.69 238.7 4.69 238.7 4.69 238.7 0.79 238.7 0.79 238.7 0.79 238.7 0.79 235.96 0.79 235.96 0.79 235.96 1.92 235.96 1.92 235.96 1.92 235.96 7.92 219.71 7.92 219.71 7.92 219.71 11.35 219.71 11.35 219.71 11.35 219.71 17.37 235.96 17.37 235.96 17.37 235.96 18.5 235.96 18.5 235.96 18.5 235.96 18.5 238.7 18.5 238.7ZM 9.66 224.65C 9.66 224.65 7.33 231.23 7.33 231.23 7.33 231.23 11.96 231.23 11.96 231.23 11.96 231.23 9.66 224.65 9.66 224.65ZM 48.99 225.61C 48.99 230.52 45.89 231 45.89 231 47.76 233.18 47.48 235.66 50.33 235.96 50.33 235.96 50.33 238.7 50.33 238.7 48.81 239.18 46.48 239.1 45.53 237.53 45.53 237.53 42.26 231.61 42.26 231.61 42.26 231.61 39.62 231.61 39.62 231.61 39.62 231.61 39.62 235.96 39.62 235.96 39.62 235.96 40.8 235.96 40.8 235.96 40.8 235.96 40.8 238.7 40.8 238.7 40.8 238.7 34.78 238.7 34.78 238.7 34.78 238.7 34.78 235.96 34.78 235.96 34.78 235.96 35.95 235.96 35.95 235.96 35.95 235.96 35.95 222.44 35.95 222.44 35.95 222.44 34.78 222.44 34.78 222.44 34.78 222.44 34.78 219.71 34.78 219.71 34.78 219.71 42.36 219.71 42.36 219.71 44.15 219.71 48.99 219.66 48.99 225.61ZM 39.62 228.87C 39.62 228.87 42.36 228.87 42.36 228.87 42.36 228.85 45.33 229.1 45.33 225.66 45.33 222.21 42.36 222.44 42.36 222.44 42.36 222.44 39.62 222.44 39.62 222.44 39.62 222.44 39.62 228.87 39.62 228.87ZM 67.46 223.56C 67.46 223.56 64.82 223.56 64.82 223.56 64.82 223.56 64.82 222.44 64.82 222.44 64.82 222.44 57.88 222.44 57.88 222.44 57.88 222.44 57.88 227.76 57.88 227.76 57.88 227.76 64.28 227.76 64.28 227.76 64.28 227.76 64.28 230.37 64.28 230.37 64.28 230.37 57.88 230.37 57.88 230.37 57.88 230.37 57.88 235.96 57.88 235.96 57.88 235.96 64.82 235.96 64.82 235.96 64.82 235.96 64.82 234.85 64.82 234.85 64.82 234.85 67.46 234.85 67.46 234.85 67.46 234.85 67.46 238.7 67.46 238.7 67.46 238.7 53.09 238.7 53.09 238.7 53.09 238.7 53.09 235.96 53.09 235.96 53.09 235.96 54.21 235.96 54.21 235.96 54.21 235.96 54.21 222.44 54.21 222.44 54.21 222.44 53.09 222.44 53.09 222.44 53.09 222.44 53.09 219.71 53.09 219.71 53.09 219.71 67.46 219.71 67.46 219.71 67.46 219.71 67.46 223.56 67.46 223.56ZM 84.69 223.56C 84.69 223.56 82.05 223.56 82.05 223.56 82.05 223.56 82.05 222.44 82.05 222.44 82.05 222.44 79.26 222.44 79.26 222.44 79.26 222.44 79.26 235.96 79.26 235.96 79.26 235.96 80.41 235.96 80.41 235.96 80.41 235.96 80.41 238.7 80.41 238.7 80.41 238.7 74.49 238.7 74.49 238.7 74.49 238.7 74.49 235.96 74.49 235.96 74.49 235.96 75.62 235.96 75.62 235.96 75.62 235.96 75.62 222.44 75.62 222.44 75.62 222.44 72.85 222.44 72.85 222.44 72.85 222.44 72.85 223.56 72.85 223.56 72.85 223.56 70.21 223.56 70.21 223.56 70.21 223.56 70.21 219.71 70.21 219.71 70.21 219.71 84.69 219.71 84.69 219.71 84.69 219.71 84.69 223.56 84.69 223.56ZM 91.19 219.71C 91.19 219.71 94.63 219.71 94.63 219.71 94.63 219.71 100.65 235.96 100.65 235.96 100.65 235.96 101.77 235.96 101.77 235.96 101.77 235.96 101.77 238.7 101.77 238.7 101.77 238.7 97.85 238.7 97.85 238.7 97.85 238.7 96.21 233.96 96.21 233.96 96.21 233.96 89.65 233.96 89.65 233.96 89.65 233.96 87.96 238.7 87.96 238.7 87.96 238.7 84.07 238.7 84.07 238.7 84.07 238.7 84.07 235.96 84.07 235.96 84.07 235.96 85.2 235.96 85.2 235.96 85.2 235.96 91.19 219.71 91.19 219.71ZM 95.24 231.23C 95.24 231.23 92.93 224.65 92.93 224.65 92.93 224.65 90.6 231.23 90.6 231.23 90.6 231.23 95.24 231.23 95.24 231.23ZM 110.14 222.44C 110.14 222.44 109.01 222.44 109.01 222.44 109.01 222.44 109.01 235.96 109.01 235.96 109.01 235.96 110.14 235.96 110.14 235.96 110.14 235.96 110.14 238.7 110.14 238.7 110.14 238.7 104.22 238.7 104.22 238.7 104.22 238.7 104.22 235.96 104.22 235.96 104.22 235.96 105.35 235.96 105.35 235.96 105.35 235.96 105.35 222.44 105.35 222.44 105.35 222.44 104.22 222.44 104.22 222.44 104.22 222.44 104.22 219.71 104.22 219.71 104.22 219.71 110.14 219.71 110.14 219.71 110.14 219.71 110.14 222.44 110.14 222.44ZM 118.95 222.44C 118.95 222.44 117.8 222.44 117.8 222.44 117.8 222.44 117.8 235.96 117.8 235.96 117.8 235.96 123.07 235.96 123.07 235.96 123.07 235.96 123.07 234.9 123.07 234.9 123.07 234.9 125.69 234.9 125.69 234.9 125.69 234.9 125.69 238.7 125.69 238.7 125.69 238.7 113.01 238.7 113.01 238.7 113.01 238.7 113.01 235.96 113.01 235.96 113.01 235.96 114.13 235.96 114.13 235.96 114.13 235.96 114.13 222.44 114.13 222.44 114.13 222.44 113.01 222.44 113.01 222.44 113.01 222.44 113.01 219.71 113.01 219.71 113.01 219.71 118.95 219.71 118.95 219.71 118.95 219.71 118.95 222.44 118.95 222.44ZM 144.51 219.15C 146.94 219.15 149.4 219.58 151.55 220.44 151.55 220.44 151.55 223.3 151.55 223.3 151.55 223.3 148.89 223.3 148.89 223.3 148.89 223.3 148.89 222.47 148.89 222.47 147.3 222.19 145.92 222.14 144.69 222.31 141.07 222.77 139.2 225.43 139.2 228.75 139.2 232.14 141.61 235.96 145.48 235.96 146.71 235.96 147.86 235.96 147.86 235.96 147.86 234.92 147.89 232.52 147.89 231.81 147.89 231.81 146.79 231.81 146.79 231.81 146.79 231.81 146.79 229.18 146.79 229.18 146.79 229.18 151.55 229.18 151.55 229.18 151.55 229.18 151.55 238.7 151.55 238.7 151.55 238.7 145.48 238.7 145.48 238.7 141.1 238.7 137.41 236.8 136.05 232.75 135.15 230.19 135.31 226.37 136.46 223.86 138 220.69 141.07 219.15 144.51 219.15ZM 168.63 225.61C 168.63 230.52 165.53 231 165.53 231 167.4 233.18 167.12 235.66 169.97 235.96 169.97 235.96 169.97 238.7 169.97 238.7 168.45 239.18 166.12 239.1 165.17 237.53 165.17 237.53 161.89 231.61 161.89 231.61 161.89 231.61 159.25 231.61 159.25 231.61 159.25 231.61 159.25 235.96 159.25 235.96 159.25 235.96 160.43 235.96 160.43 235.96 160.43 235.96 160.43 238.7 160.43 238.7 160.43 238.7 154.41 238.7 154.41 238.7 154.41 238.7 154.41 235.96 154.41 235.96 154.41 235.96 155.59 235.96 155.59 235.96 155.59 235.96 155.59 222.44 155.59 222.44 155.59 222.44 154.41 222.44 154.41 222.44 154.41 222.44 154.41 219.71 154.41 219.71 154.41 219.71 162 219.71 162 219.71 163.79 219.71 168.63 219.66 168.63 225.61ZM 159.25 228.87C 159.25 228.87 162 228.87 162 228.87 162 228.85 164.97 229.1 164.97 225.66 164.97 222.21 162 222.44 162 222.44 162 222.44 159.25 222.44 159.25 222.44 159.25 222.44 159.25 228.87 159.25 228.87ZM 180.92 219.43C 190.48 219.43 190.07 229.35 190.07 229.35 190.07 229.35 190.25 239 180.92 239 180.92 239 171.82 239.46 171.82 229.4 171.82 229.4 171.54 219.43 180.92 219.43ZM 181.02 236.01C 188.02 235.94 188.02 222.49 180.92 222.49 173.8 222.49 173.9 236.09 181.02 236.01ZM 199.18 222.44C 199.18 222.44 198.08 222.44 198.08 222.44 198.08 222.44 198.08 233.69 198.08 233.69 198.08 233.69 198.08 235.96 201.2 235.96 204.63 235.96 204.61 233.69 204.61 233.69 204.61 233.69 204.61 222.44 204.61 222.44 204.61 222.44 203.48 222.44 203.48 222.44 203.48 222.44 203.48 219.71 203.48 219.71 203.48 219.71 209.35 219.71 209.35 219.71 209.35 219.71 209.35 222.44 209.35 222.44 209.35 222.44 208.27 222.44 208.27 222.44 208.27 222.44 208.27 234.62 208.27 234.62 208.27 237.63 205.17 238.95 201.25 238.95 197.38 238.95 194.41 237.61 194.41 234.6 194.41 234.6 194.41 222.44 194.41 222.44 194.41 222.44 193.28 222.44 193.28 222.44 193.28 222.44 193.28 219.71 193.28 219.71 193.28 219.71 199.18 219.71 199.18 219.71 199.18 219.71 199.18 222.44 199.18 222.44Z" fill="rgb(255,255,255)"/></svg>