<?xml version="1.0" encoding="utf-8"?>
<svg xmlns="http://www.w3.org/2000/svg"
	xmlns:xlink="http://www.w3.org/1999/xlink"
	width="285px" height="190px" viewBox="0 0 285 190">
<path fillRule="evenodd" d="M 270.72 154.05C 270.34 152 269.74 150.55 268.92 149.74 267.6 148.42 265.33 147.74 262.2 147.74 259.12 147.74 256.98 148.25 255.78 149.28 254.88 150.04 254.41 151.11 254.41 152.43 254.41 154.31 257.02 155.8 262.2 156.95 268.11 158.23 272.35 159.34 274.96 160.23 275.65 160.49 276.25 160.7 276.67 160.92 281.94 163.39 284.55 167.14 284.55 172.17 284.55 178.31 281.98 182.79 276.89 185.61 276.25 185.95 275.65 186.25 274.96 186.54 271.66 187.95 267.81 188.68 263.49 188.68 257.02 188.68 251.8 187.52 247.82 185.26 242.81 182.36 240.32 177.97 240.32 172.09 240.32 172.09 253.34 172.09 253.34 172.09 253.34 174.31 254.15 176.05 255.74 177.25 257.32 178.48 260.02 179.12 263.83 179.12 266.7 179.12 268.84 178.53 270.25 177.33 271.36 176.39 271.88 175.37 271.88 174.18 271.88 172.17 269.31 170.6 264.21 169.49 256.59 167.87 251.8 166.55 249.83 165.61 244.6 163.18 242.04 159.42 242.04 154.22 242.04 150.04 243.36 146.5 246.1 143.6 249.53 139.98 254.67 138.19 261.47 138.19 267.08 138.19 271.58 139 274.96 140.58 275.26 140.7 275.52 140.83 275.77 141 280.66 143.65 283.14 148 283.14 154.05 283.14 154.05 274.96 154.05 274.96 154.05 274.96 154.05 270.72 154.05 270.72 154.05ZM 278.69 131.88C 277.49 132.56 276.29 132.86 275 132.86 274.96 132.86 274.96 132.86 274.96 132.86 273.68 132.86 272.48 132.56 271.28 131.88 270.08 131.24 269.18 130.34 268.54 129.15 267.85 127.96 267.55 126.72 267.55 125.48 267.55 124.16 267.85 122.92 268.54 121.73 269.22 120.54 270.12 119.64 271.32 119 272.52 118.36 273.72 118.06 274.96 118.02 274.96 118.02 274.96 118.02 275 118.02 276.25 118.02 277.44 118.36 278.64 119 279.84 119.64 280.78 120.54 281.43 121.73 282.11 122.92 282.41 124.16 282.41 125.48 282.41 126.72 282.11 127.96 281.43 129.15 280.78 130.34 279.88 131.24 278.69 131.88ZM 280.36 122.37C 279.8 121.39 279.03 120.62 278.04 120.07 277.06 119.56 276.03 119.26 275 119.26 274.96 119.26 274.96 119.26 274.96 119.26 273.93 119.26 272.91 119.56 271.92 120.07 270.94 120.62 270.17 121.39 269.61 122.37 269.05 123.35 268.75 124.37 268.75 125.48 268.75 126.55 269.05 127.57 269.61 128.55 270.12 129.49 270.89 130.26 271.88 130.81 272.86 131.37 273.89 131.62 274.96 131.62 274.96 131.62 274.96 131.62 275 131.62 276.07 131.62 277.1 131.37 278.09 130.81 279.07 130.26 279.84 129.49 280.36 128.55 280.91 127.57 281.17 126.55 281.17 125.48 281.17 124.37 280.91 123.35 280.36 122.37ZM 276.16 128.3C 275.69 127.49 275.3 126.89 274.96 126.59 274.92 126.55 274.87 126.51 274.79 126.46 274.58 126.25 274.23 126.17 273.76 126.17 273.76 126.17 272.99 126.17 272.99 126.17 272.99 126.17 272.99 129.58 272.99 129.58 272.99 129.58 271.71 129.58 271.71 129.58 271.71 129.58 271.71 121.56 271.71 121.56 271.71 121.56 274.49 121.56 274.49 121.56 274.66 121.56 274.83 121.6 274.96 121.6 275.65 121.6 276.16 121.69 276.5 121.82 276.93 121.94 277.27 122.2 277.53 122.58 277.79 122.92 277.91 123.31 277.91 123.73 277.91 124.33 277.7 124.84 277.27 125.27 276.84 125.69 276.29 125.95 275.6 125.99 275.9 126.12 276.12 126.25 276.29 126.42 276.59 126.72 277.02 127.27 277.49 128 277.49 128 278.43 129.58 278.43 129.58 278.43 129.58 276.89 129.58 276.89 129.58 276.89 129.58 276.16 128.3 276.16 128.3ZM 276.12 124.71C 276.37 124.5 276.5 124.2 276.5 123.86 276.5 123.61 276.46 123.39 276.33 123.22 276.2 123.01 276.03 122.88 275.77 122.8 275.6 122.75 275.35 122.71 274.96 122.67 274.83 122.67 274.66 122.67 274.49 122.67 274.49 122.67 272.99 122.67 272.99 122.67 272.99 122.67 272.99 125.06 272.99 125.06 272.99 125.06 274.58 125.06 274.58 125.06 274.7 125.06 274.87 125.06 274.96 125.06 275.52 125.01 275.9 124.93 276.12 124.71ZM 188.26 123.56C 188.26 123.56 154.69 67.83 154.69 67.83 154.69 67.83 129.26 25.66 129.26 25.66 129.26 25.66 154.69 10.44 154.69 10.44 154.69 10.44 170.7 0.84 170.7 0.84 170.7 0.84 209.58 65.23 209.58 65.23 209.58 65.23 244.73 123.56 244.73 123.56 244.73 123.56 209.58 123.56 209.58 123.56 209.58 123.56 188.26 123.56 188.26 123.56ZM 168.48 123.56C 168.48 123.56 154.69 123.56 154.69 123.56 154.69 123.56 112.05 123.56 112.05 123.56 112.05 123.56 80.71 71.63 80.71 71.63 80.71 71.63 79.34 69.37 79.34 69.37 79.34 69.37 80.71 68.56 80.71 68.56 80.71 68.56 120.82 44.51 120.82 44.51 120.82 44.51 154.69 100.62 154.69 100.62 154.69 100.62 168.48 123.56 168.48 123.56ZM 92.27 123.56C 92.27 123.56 80.71 123.56 80.71 123.56 80.71 123.56 35.79 123.56 35.79 123.56 35.79 123.56 29.46 113.03 29.46 113.03 29.46 113.03 70.94 88.21 70.94 88.21 70.94 88.21 80.71 104.38 80.71 104.38 80.71 104.38 92.27 123.56 92.27 123.56ZM 39.13 140.02C 39.13 140.02 50.82 140.02 50.82 140.02 50.82 140.02 50.82 164.07 50.82 164.07 50.82 164.07 50.82 187.99 50.82 187.99 50.82 187.99 39.13 187.99 39.13 187.99 39.13 187.99 39.13 185.35 39.13 185.35 35.15 187.91 30.44 189.4 25.39 189.4 25.35 189.4 25.3 189.4 25.26 189.4 11.35 189.32-0 177.97-0 164.07-0 150.17 11.35 138.83 25.26 138.74 25.3 138.74 25.35 138.74 25.39 138.74 30.44 138.74 35.15 140.24 39.13 142.79 39.13 142.79 39.13 140.02 39.13 140.02ZM 25.39 150.17C 25.35 150.17 25.3 150.17 25.26 150.17 17.64 150.21 11.43 156.44 11.43 164.07 11.43 171.7 17.64 177.93 25.26 178.02 25.3 178.02 25.35 178.02 25.39 178.02 32.2 178.02 37.89 173.11 39.13 166.72 39.13 166.72 39.13 161.43 39.13 161.43 37.89 155.03 32.2 150.17 25.39 150.17ZM 80.71 138.74C 80.75 138.74 80.79 138.74 80.84 138.74 85.89 138.74 90.6 140.24 94.58 142.79 94.58 142.79 94.58 123.56 94.58 123.56 94.58 123.56 106.27 123.56 106.27 123.56 106.27 123.56 106.27 164.07 106.27 164.07 106.27 164.07 106.27 187.99 106.27 187.99 106.27 187.99 94.58 187.99 94.58 187.99 94.58 187.99 94.58 185.35 94.58 185.35 90.6 187.91 85.89 189.4 80.84 189.4 80.79 189.4 80.75 189.4 80.71 189.4 66.75 189.32 55.4 177.97 55.4 164.07 55.4 150.17 66.75 138.83 80.71 138.74ZM 80.71 178.02C 80.75 178.02 80.79 178.02 80.84 178.02 87.64 178.02 93.34 173.11 94.58 166.72 94.58 166.72 94.58 161.43 94.58 161.43 93.34 155.03 87.64 150.17 80.84 150.17 80.79 150.17 80.75 150.17 80.71 150.17 73.04 150.21 66.83 156.44 66.83 164.07 66.83 171.7 73.04 177.93 80.71 178.02ZM 124.81 134.95C 124.81 134.95 112.09 134.95 112.09 134.95 112.09 134.95 112.09 123.82 112.09 123.82 112.09 123.82 124.81 123.82 124.81 123.82 124.81 123.82 124.81 134.95 124.81 134.95ZM 124.81 187.99C 124.81 187.99 112.09 187.99 112.09 187.99 112.09 187.99 112.09 138.74 112.09 138.74 112.09 138.74 124.81 138.74 124.81 138.74 124.81 138.74 124.81 187.99 124.81 187.99ZM 154.69 138.74C 154.73 138.74 154.78 138.74 154.82 138.74 159.87 138.74 164.54 140.24 168.52 142.79 168.52 142.79 168.52 123.56 168.52 123.56 168.52 123.56 180.21 123.56 180.21 123.56 180.21 123.56 180.21 164.07 180.21 164.07 180.21 164.07 180.21 187.99 180.21 187.99 180.21 187.99 168.52 187.99 168.52 187.99 168.52 187.99 168.52 185.35 168.52 185.35 164.54 187.91 159.87 189.4 154.82 189.4 154.78 189.4 154.73 189.4 154.69 189.4 140.73 189.32 129.39 177.97 129.39 164.07 129.39 150.17 140.73 138.83 154.69 138.74ZM 154.69 178.02C 154.73 178.02 154.78 178.02 154.82 178.02 161.59 178.02 167.28 173.11 168.52 166.72 168.52 166.72 168.52 161.43 168.52 161.43 167.28 155.03 161.59 150.17 154.82 150.17 154.78 150.17 154.73 150.17 154.69 150.17 147.03 150.21 140.82 156.44 140.82 164.07 140.82 171.7 147.03 177.93 154.69 178.02ZM 209.58 138.74C 209.62 138.74 209.67 138.74 209.71 138.74 214.76 138.74 219.47 140.24 223.41 142.79 223.41 142.79 223.41 140.02 223.41 140.02 223.41 140.02 235.1 140.02 235.1 140.02 235.1 140.02 235.1 164.07 235.1 164.07 235.1 164.07 235.1 187.99 235.1 187.99 235.1 187.99 223.41 187.99 223.41 187.99 223.41 187.99 223.41 185.35 223.41 185.35 219.47 187.91 214.76 189.4 209.71 189.4 209.67 189.4 209.62 189.4 209.58 189.4 195.62 189.32 184.28 177.97 184.28 164.07 184.28 150.17 195.62 138.83 209.58 138.74ZM 209.58 178.02C 209.62 178.02 209.67 178.02 209.71 178.02 216.47 178.02 222.17 173.11 223.41 166.72 223.41 166.72 223.41 161.43 223.41 161.43 222.17 155.03 216.47 150.17 209.71 150.17 209.67 150.17 209.62 150.17 209.58 150.17 201.92 150.21 195.71 156.44 195.71 164.07 195.71 171.7 201.92 177.93 209.58 178.02Z" fill="rgb(255,255,255)"/></svg>