<?xml version="1.0" encoding="utf-8"?>
<svg xmlns="http://www.w3.org/2000/svg"
	xmlns:xlink="http://www.w3.org/1999/xlink"
	width="113px" height="26px" viewBox="0 0 113 26">
<path fillRule="evenodd" d="M-0.01 18.2C-0.01 18.2-0.01 0-0.01 0-0.01 0 113 0 113 0 113 0 113 18.2 113 18.2 113 18.2-0.01 18.2-0.01 18.2ZM 111.68 1.31C 111.68 1.31 1.31 1.31 1.31 1.31 1.31 1.31 1.31 16.89 1.31 16.89 1.31 16.89 111.68 16.89 111.68 16.89 111.68 16.89 111.68 1.31 111.68 1.31ZM 15.61 4.3C 15.61 4.3 15.61 13.9 15.61 13.9 15.61 13.9 14.1 13.9 14.1 13.9 14.1 13.9 14.1 8.36 14.1 8.36 14.1 8.36 11.11 11.88 11.11 11.88 11.11 11.88 8.11 8.36 8.11 8.36 8.11 8.36 8.11 13.9 8.11 13.9 8.11 13.9 6.61 13.9 6.61 13.9 6.61 13.9 6.61 4.3 6.61 4.3 6.61 4.3 11.11 9.57 11.11 9.57 11.11 9.57 15.61 4.3 15.61 4.3ZM 23.74 4.3C 25 4.3 25.74 4.82 26.12 5.26 26.63 5.82 26.9 6.59 26.9 7.48 26.9 8.36 26.63 9.14 26.12 9.7 25.89 9.96 25.53 10.25 25.01 10.44 25.01 10.44 27.59 13.9 27.59 13.9 27.59 13.9 25.9 13.9 25.9 13.9 25.9 13.9 23.49 10.66 23.49 10.66 23.49 10.66 22.4 10.66 22.4 10.66 22.4 10.66 22.4 13.9 22.4 13.9 22.4 13.9 20.9 13.9 20.9 13.9 20.9 13.9 20.9 4.3 20.9 4.3 20.9 4.3 22.16 4.3 22.16 4.3 22.16 4.3 23.74 4.3 23.74 4.3ZM 22.4 9.31C 22.4 9.31 23.74 9.31 23.74 9.31 24.36 9.31 24.82 9.13 25.12 8.79 25.48 8.4 25.54 7.86 25.54 7.48 25.54 7.1 25.48 6.55 25.12 6.16 24.82 5.83 24.36 5.66 23.74 5.66 23.74 5.66 22.4 5.66 22.4 5.66 22.4 5.66 22.4 9.31 22.4 9.31ZM 32.66 12.09C 33.15 12.09 33.56 12.51 33.56 13 33.56 13.5 33.15 13.9 32.66 13.9 32.16 13.9 31.76 13.5 31.76 13 31.76 12.51 32.16 12.09 32.66 12.09ZM 41.21 4.3C 42.25 4.3 42.87 4.73 43.21 5.1 43.62 5.57 43.85 6.21 43.85 6.94 43.85 7.62 43.67 8.2 43.32 8.65 43.56 8.79 43.74 8.95 43.87 9.1 44.32 9.61 44.56 10.28 44.56 11.07 44.56 11.87 44.32 12.54 43.87 13.05 43.52 13.44 42.86 13.9 41.74 13.9 41.74 13.9 39.82 13.9 39.82 13.9 39.82 13.9 38.47 13.9 38.47 13.9 38.47 13.9 38.47 4.3 38.47 4.3 38.47 4.3 39.97 4.3 39.97 4.3 39.97 4.3 41.21 4.3 41.21 4.3ZM 39.97 12.54C 39.97 12.54 41.74 12.54 41.74 12.54 42.24 12.54 42.63 12.41 42.87 12.14 43.16 11.83 43.21 11.39 43.21 11.07 43.21 10.76 43.16 10.32 42.87 10.01 42.63 9.74 42.24 9.61 41.74 9.61 41.74 9.61 39.97 9.61 39.97 9.61 39.97 9.61 39.97 12.54 39.97 12.54ZM 39.97 8.25C 39.97 8.25 41.21 8.25 41.21 8.25 41.66 8.25 41.98 8.12 42.2 7.89 42.45 7.62 42.5 7.23 42.5 6.94 42.5 6.67 42.45 6.28 42.2 6.01 41.98 5.78 41.66 5.65 41.21 5.65 41.21 5.65 39.97 5.65 39.97 5.65 39.97 5.65 39.97 8.25 39.97 8.25ZM 52.08 4.3C 53.34 4.3 54.08 4.82 54.46 5.26 54.97 5.82 55.24 6.59 55.24 7.48 55.24 8.36 54.97 9.14 54.46 9.7 54.23 9.96 53.87 10.25 53.36 10.44 53.36 10.44 55.93 13.9 55.93 13.9 55.93 13.9 54.25 13.9 54.25 13.9 54.25 13.9 51.84 10.66 51.84 10.66 51.84 10.66 50.74 10.66 50.74 10.66 50.74 10.66 50.74 13.9 50.74 13.9 50.74 13.9 49.24 13.9 49.24 13.9 49.24 13.9 49.24 4.3 49.24 4.3 49.24 4.3 50.51 4.3 50.51 4.3 50.51 4.3 52.08 4.3 52.08 4.3ZM 50.74 9.31C 50.74 9.31 52.08 9.31 52.08 9.31 52.7 9.31 53.16 9.13 53.46 8.79 53.82 8.4 53.88 7.86 53.88 7.48 53.88 7.1 53.82 6.55 53.46 6.16 53.16 5.83 52.7 5.66 52.08 5.66 52.08 5.66 50.74 5.66 50.74 5.66 50.74 5.66 50.74 9.31 50.74 9.31ZM 61.49 5.7C 61.93 5.26 62.43 4.92 63.01 4.68 63.59 4.43 64.23 4.3 64.87 4.3 65.52 4.3 66.15 4.43 66.74 4.68 67.3 4.92 67.81 5.26 68.26 5.7 68.7 6.15 69.03 6.66 69.28 7.23 69.52 7.82 69.65 8.46 69.65 9.1 69.65 9.75 69.52 10.38 69.28 10.97 69.03 11.55 68.7 12.05 68.26 12.49 67.81 12.93 67.3 13.28 66.74 13.53 66.15 13.77 65.52 13.9 64.87 13.9 64.23 13.9 63.59 13.77 63.01 13.53 62.43 13.28 61.93 12.93 61.49 12.49 61.05 12.05 60.71 11.55 60.46 10.97 60.21 10.38 60.09 9.75 60.09 9.1 60.09 8.46 60.21 7.82 60.46 7.23 60.71 6.66 61.05 6.15 61.49 5.7ZM 62.55 11.43C 63.17 12.05 63.99 12.4 64.87 12.4 65.75 12.4 66.57 12.05 67.19 11.43 67.81 10.81 68.16 9.98 68.16 9.1 68.16 8.22 67.81 7.39 67.19 6.77 66.57 6.15 65.75 5.8 64.87 5.8 63.99 5.8 63.17 6.15 62.55 6.77 61.93 7.39 61.58 8.22 61.58 9.1 61.58 9.98 61.93 10.81 62.55 11.43ZM 75.52 5.7C 75.96 5.26 76.46 4.92 77.04 4.68 77.62 4.43 78.25 4.3 78.9 4.3 79.55 4.3 80.17 4.43 80.77 4.68 81.34 4.92 81.84 5.26 82.29 5.7 82.73 6.15 83.06 6.66 83.31 7.23 83.55 7.82 83.68 8.46 83.68 9.1 83.68 9.75 83.55 10.38 83.31 10.97 83.06 11.55 82.73 12.05 82.29 12.49 81.84 12.93 81.34 13.28 80.77 13.53 80.17 13.77 79.55 13.9 78.9 13.9 78.25 13.9 77.62 13.77 77.04 13.53 76.46 13.28 75.96 12.93 75.52 12.49 75.08 12.05 74.73 11.55 74.49 10.97 74.25 10.38 74.12 9.75 74.12 9.1 74.12 8.46 74.25 7.82 74.49 7.23 74.73 6.66 75.08 6.15 75.52 5.7ZM 76.58 11.43C 77.2 12.05 78.02 12.4 78.9 12.4 79.78 12.4 80.6 12.05 81.22 11.43 81.84 10.81 82.19 9.98 82.19 9.1 82.19 8.22 81.84 7.39 81.22 6.77 80.6 6.15 79.78 5.8 78.9 5.8 78.02 5.8 77.2 6.15 76.58 6.77 75.96 7.39 75.61 8.22 75.61 9.1 75.61 9.98 75.96 10.81 76.58 11.43ZM 90.08 8.26C 90.08 8.26 93.15 4.3 93.15 4.3 93.15 4.3 95.03 4.3 95.03 4.3 95.03 4.3 91.52 8.92 91.52 8.92 91.52 8.92 95.74 13.9 95.74 13.9 95.74 13.9 93.87 13.9 93.87 13.9 93.87 13.9 90.08 9.56 90.08 9.56 90.08 9.56 90.08 13.9 90.08 13.9 90.08 13.9 88.59 13.9 88.59 13.9 88.59 13.9 88.59 4.3 88.59 4.3 88.59 4.3 90.08 4.3 90.08 4.3 90.08 4.3 90.08 8.26 90.08 8.26ZM 102.72 12.46C 103.28 12.52 103.8 12.39 104.21 12.12 104.77 11.75 105.05 11.16 104.93 10.64 104.79 10.04 104.11 9.62 103.08 9.49 102.33 9.4 101.7 9.17 101.21 8.81 100.74 8.44 100.41 7.98 100.27 7.45 100.14 6.98 100.16 6.49 100.33 6.02 100.49 5.56 100.78 5.16 101.17 4.86 101.64 4.5 102.22 4.3 102.87 4.3 103.56 4.3 104.26 4.52 104.98 4.95 104.98 4.95 104.28 6.16 104.28 6.16 103.77 5.88 103.3 5.73 102.87 5.73 102.55 5.73 102.25 5.82 102.03 5.99 101.86 6.11 101.74 6.29 101.66 6.49 101.59 6.69 101.58 6.89 101.63 7.07 101.79 7.6 102.37 7.98 103.24 8.08 104.08 8.18 104.78 8.43 105.31 8.83 105.82 9.22 106.17 9.72 106.31 10.3 106.44 10.86 106.38 11.44 106.13 11.99 105.89 12.52 105.5 12.97 105 13.31 104.41 13.7 103.71 13.9 102.96 13.9 102.85 13.9 102.72 13.89 102.6 13.89 101.62 13.8 100.62 13.4 99.62 12.66 99.62 12.66 100.46 11.52 100.46 11.52 101.25 12.09 102 12.4 102.72 12.46ZM 8.91 22.79C 9.12 22.96 9.22 23.22 9.22 23.57 9.22 23.94 9.1 24.21 8.87 24.39 8.64 24.57 8.32 24.66 7.91 24.66 7.91 24.66 7.19 24.66 7.19 24.66 7.19 24.66 7.19 25.9 7.19 25.9 7.19 25.9 6.57 25.9 6.57 25.9 6.57 25.9 6.57 22.52 6.57 22.52 6.57 22.52 7.91 22.52 7.91 22.52 8.37 22.52 8.7 22.61 8.91 22.79ZM 7.19 23.04C 7.19 23.04 7.19 24.14 7.19 24.14 7.19 24.14 7.9 24.14 7.9 24.14 8.14 24.15 8.32 24.1 8.42 24.01 8.53 23.92 8.59 23.79 8.59 23.6 8.58 23.41 8.53 23.26 8.42 23.17 8.3 23.09 8.14 23.04 7.91 23.04 7.91 23.04 7.19 23.04 7.19 23.04ZM 15.34 22.76C 15.54 22.91 15.64 23.15 15.64 23.46 15.64 23.67 15.59 23.85 15.49 23.99 15.39 24.14 15.25 24.24 15.08 24.28 15.08 24.28 15.08 24.29 15.08 24.29 15.25 24.35 15.38 24.45 15.46 24.58 15.53 24.71 15.57 24.9 15.58 25.17 15.58 25.46 15.58 25.64 15.6 25.71 15.62 25.78 15.65 25.84 15.7 25.9 15.7 25.9 15.07 25.9 15.07 25.9 15.02 25.83 14.99 25.76 14.98 25.68 14.97 25.6 14.96 25.44 14.96 25.2 14.96 24.95 14.9 24.78 14.79 24.69 14.68 24.6 14.5 24.56 14.25 24.56 14.25 24.56 13.54 24.56 13.54 24.56 13.54 24.56 13.54 25.9 13.54 25.9 13.54 25.9 12.92 25.9 12.92 25.9 12.92 25.9 12.92 22.52 12.92 22.52 12.92 22.52 14.43 22.52 14.43 22.52 14.83 22.53 15.14 22.61 15.34 22.76ZM 13.54 23.04C 13.54 23.04 13.54 24.05 13.54 24.05 13.54 24.05 14.31 24.05 14.31 24.05 14.56 24.05 14.74 24.01 14.85 23.92 14.96 23.84 15.01 23.71 15.01 23.54 15.01 23.37 14.95 23.24 14.84 23.16 14.73 23.08 14.56 23.04 14.32 23.04 14.32 23.04 13.54 23.04 13.54 23.04ZM 20.08 25.9C 20.08 25.9 19.47 25.9 19.47 25.9 19.47 25.9 19.47 22.52 19.47 22.52 19.47 22.52 20.08 22.52 20.08 22.52 20.08 22.52 20.08 25.9 20.08 25.9ZM 25.13 25.26C 25.13 25.26 25.97 22.52 25.97 22.52 25.97 22.52 26.64 22.52 26.64 22.52 26.64 22.52 25.48 25.9 25.48 25.9 25.48 25.9 24.77 25.9 24.77 25.9 24.77 25.9 23.61 22.52 23.61 22.52 23.61 22.52 24.28 22.52 24.28 22.52 24.28 22.52 25.13 25.26 25.13 25.26ZM 31.42 22.52C 31.42 22.52 32.69 25.9 32.69 25.9 32.69 25.9 32.03 25.9 32.03 25.9 32.03 25.9 31.79 25.19 31.79 25.19 31.79 25.19 30.43 25.19 30.43 25.19 30.43 25.19 30.19 25.9 30.19 25.9 30.19 25.9 29.54 25.9 29.54 25.9 29.54 25.9 30.8 22.52 30.8 22.52 30.8 22.52 31.42 22.52 31.42 22.52ZM 31.62 24.68C 31.62 24.68 31.11 23.18 31.11 23.18 31.11 23.18 30.61 24.68 30.61 24.68 30.61 24.68 31.62 24.68 31.62 24.68ZM 38.22 23.04C 38.22 23.04 37.16 23.04 37.16 23.04 37.16 23.04 37.16 25.9 37.16 25.9 37.16 25.9 36.54 25.9 36.54 25.9 36.54 25.9 36.54 23.04 36.54 23.04 36.54 23.04 35.49 23.04 35.49 23.04 35.49 23.04 35.49 22.52 35.49 22.52 35.49 22.52 38.22 22.52 38.22 22.52 38.22 22.52 38.22 23.04 38.22 23.04ZM 44.35 23.04C 44.35 23.04 42.45 23.04 42.45 23.04 42.45 23.04 42.45 23.91 42.45 23.91 42.45 23.91 44.16 23.91 44.16 23.91 44.16 23.91 44.16 24.42 44.16 24.42 44.16 24.42 42.45 24.42 42.45 24.42 42.45 24.42 42.45 25.39 42.45 25.39 42.45 25.39 44.41 25.39 44.41 25.39 44.41 25.39 44.41 25.9 44.41 25.9 44.41 25.9 41.83 25.9 41.83 25.9 41.83 25.9 41.83 22.52 41.83 22.52 41.83 22.52 44.35 22.52 44.35 22.52 44.35 22.52 44.35 23.04 44.35 23.04ZM 54.13 25.08C 54.13 25.08 55.05 22.52 55.05 22.52 55.05 22.52 55.97 22.52 55.97 22.52 55.97 22.52 55.97 25.9 55.97 25.9 55.97 25.9 55.35 25.9 55.35 25.9 55.35 25.9 55.35 23.36 55.35 23.36 55.35 23.36 55.36 23.23 55.36 23.23 55.36 23.23 55.35 23.23 55.35 23.23 55.35 23.23 54.36 25.9 54.36 25.9 54.36 25.9 53.9 25.9 53.9 25.9 53.9 25.9 52.91 23.23 52.91 23.23 52.91 23.23 52.9 23.23 52.9 23.23 52.9 23.23 52.91 23.36 52.91 23.36 52.91 23.36 52.91 25.9 52.91 25.9 52.91 25.9 52.3 25.9 52.3 25.9 52.3 25.9 52.3 22.52 52.3 22.52 52.3 22.52 53.21 22.52 53.21 22.52 53.21 22.52 54.13 25.08 54.13 25.08ZM 61.38 22.52C 61.38 22.52 62.65 25.9 62.65 25.9 62.65 25.9 62 25.9 62 25.9 62 25.9 61.76 25.19 61.76 25.19 61.76 25.19 60.4 25.19 60.4 25.19 60.4 25.19 60.16 25.9 60.16 25.9 60.16 25.9 59.5 25.9 59.5 25.9 59.5 25.9 60.77 22.52 60.77 22.52 60.77 22.52 61.38 22.52 61.38 22.52ZM 61.58 24.68C 61.58 24.68 61.08 23.18 61.08 23.18 61.08 23.18 60.57 24.68 60.57 24.68 60.57 24.68 61.58 24.68 61.58 24.68ZM 68.6 22.76C 68.8 22.91 68.91 23.15 68.91 23.46 68.91 23.67 68.85 23.85 68.75 23.99 68.65 24.14 68.51 24.24 68.34 24.28 68.34 24.28 68.34 24.29 68.34 24.29 68.51 24.35 68.64 24.45 68.72 24.58 68.79 24.71 68.83 24.9 68.84 25.17 68.84 25.46 68.84 25.64 68.86 25.71 68.88 25.78 68.91 25.84 68.96 25.9 68.96 25.9 68.33 25.9 68.33 25.9 68.28 25.83 68.25 25.76 68.24 25.68 68.23 25.6 68.22 25.44 68.22 25.2 68.22 24.95 68.16 24.78 68.05 24.69 67.94 24.6 67.76 24.56 67.51 24.56 67.51 24.56 66.8 24.56 66.8 24.56 66.8 24.56 66.8 25.9 66.8 25.9 66.8 25.9 66.18 25.9 66.18 25.9 66.18 25.9 66.18 22.52 66.18 22.52 66.18 22.52 67.69 22.52 67.69 22.52 68.09 22.53 68.4 22.61 68.6 22.76ZM 66.8 23.04C 66.8 23.04 66.8 24.05 66.8 24.05 66.8 24.05 67.57 24.05 67.57 24.05 67.82 24.05 68 24.01 68.11 23.92 68.22 23.84 68.27 23.71 68.27 23.54 68.27 23.37 68.21 23.24 68.1 23.16 67.99 23.08 67.82 23.04 67.58 23.04 67.58 23.04 66.8 23.04 66.8 23.04ZM 73.34 24.04C 73.34 24.04 74.81 22.52 74.81 22.52 74.81 22.52 75.64 22.52 75.64 22.52 75.64 22.52 74.23 23.9 74.23 23.9 74.23 23.9 75.73 25.9 75.73 25.9 75.73 25.9 74.91 25.9 74.91 25.9 74.91 25.9 73.79 24.34 73.79 24.34 73.79 24.34 73.34 24.78 73.34 24.78 73.34 24.78 73.34 25.9 73.34 25.9 73.34 25.9 72.73 25.9 72.73 25.9 72.73 25.9 72.73 22.52 72.73 22.52 72.73 22.52 73.34 22.52 73.34 22.52 73.34 22.52 73.34 24.04 73.34 24.04ZM 81.78 23.04C 81.78 23.04 79.88 23.04 79.88 23.04 79.88 23.04 79.88 23.91 79.88 23.91 79.88 23.91 81.59 23.91 81.59 23.91 81.59 23.91 81.59 24.42 81.59 24.42 81.59 24.42 79.88 24.42 79.88 24.42 79.88 24.42 79.88 25.39 79.88 25.39 79.88 25.39 81.84 25.39 81.84 25.39 81.84 25.39 81.84 25.9 81.84 25.9 81.84 25.9 79.26 25.9 79.26 25.9 79.26 25.9 79.26 22.52 79.26 22.52 79.26 22.52 81.78 22.52 81.78 22.52 81.78 22.52 81.78 23.04 81.78 23.04ZM 87.85 23.04C 87.85 23.04 86.8 23.04 86.8 23.04 86.8 23.04 86.8 25.9 86.8 25.9 86.8 25.9 86.18 25.9 86.18 25.9 86.18 25.9 86.18 23.04 86.18 23.04 86.18 23.04 85.12 23.04 85.12 23.04 85.12 23.04 85.12 22.52 85.12 22.52 85.12 22.52 87.85 22.52 87.85 22.52 87.85 22.52 87.85 23.04 87.85 23.04ZM 92.08 25.9C 92.08 25.9 91.46 25.9 91.46 25.9 91.46 25.9 91.46 22.52 91.46 22.52 91.46 22.52 92.08 22.52 92.08 22.52 92.08 22.52 92.08 25.9 92.08 25.9ZM 98.31 24.92C 98.31 24.92 98.31 22.52 98.31 22.52 98.31 22.52 98.92 22.52 98.92 22.52 98.92 22.52 98.92 25.9 98.92 25.9 98.92 25.9 98.27 25.9 98.27 25.9 98.27 25.9 96.65 23.5 96.65 23.5 96.65 23.5 96.65 25.9 96.65 25.9 96.65 25.9 96.04 25.9 96.04 25.9 96.04 25.9 96.04 22.52 96.04 22.52 96.04 22.52 96.69 22.52 96.69 22.52 96.69 22.52 98.31 24.92 98.31 24.92ZM 104.34 22.42C 104.76 22.42 105.09 22.52 105.35 22.7 105.61 22.89 105.75 23.18 105.79 23.57 105.79 23.57 105.18 23.57 105.18 23.57 105.15 23.38 105.07 23.23 104.93 23.11 104.79 22.99 104.59 22.93 104.34 22.93 104.03 22.93 103.78 23.04 103.6 23.26 103.43 23.48 103.34 23.81 103.34 24.25 103.34 24.66 103.44 24.96 103.64 25.17 103.84 25.38 104.08 25.49 104.38 25.49 104.66 25.49 104.87 25.41 105.03 25.25 105.18 25.09 105.27 24.88 105.27 24.6 105.27 24.6 104.45 24.6 104.45 24.6 104.45 24.6 104.45 24.09 104.45 24.09 104.45 24.09 105.83 24.09 105.83 24.09 105.83 24.09 105.83 25.9 105.83 25.9 105.83 25.9 105.38 25.9 105.38 25.9 105.38 25.9 105.38 25.44 105.38 25.44 105.38 25.44 105.37 25.44 105.37 25.44 105.28 25.62 105.15 25.76 104.97 25.86 104.8 25.95 104.58 26 104.33 26 103.82 26 103.42 25.85 103.13 25.55 102.83 25.25 102.69 24.82 102.69 24.27 102.69 23.7 102.83 23.25 103.11 22.92 103.39 22.59 103.8 22.43 104.34 22.42Z" fill="rgb(225,187,153)"/></svg>