<?xml version="1.0" encoding="utf-8"?>
<svg xmlns="http://www.w3.org/2000/svg"
	xmlns:xlink="http://www.w3.org/1999/xlink"
	width="291px" height="203px" viewBox="0 0 291 203">
<path fillRule="evenodd" d="M 7.86 157.56C 7.86 157.56 0.81 125.4 0.81 125.4 0.81 125.4 120.6 82.05 120.6 82.05 120.6 82.05 183.56 0.93 183.56 0.93 183.56 0.93 273.77 58.71 273.77 58.71 273.77 58.71 290.68 202.75 290.68 202.75 290.68 202.75 7.86 157.56 7.86 157.56ZM 125.59 121.02C 128.31 120.42 130 121.76 131.31 125.48 131.31 125.48 138.32 121.81 138.32 121.81 136.96 116.1 132.72 112.74 125.76 114.27 117.67 116.05 113.48 121.56 113.48 128.87 113.48 140.77 130.91 137.05 130.91 145.06 130.91 148.25 128.81 150.59 126.1 151.19 123.78 151.7 120.95 150.5 120.04 145.57 120.04 145.57 112.35 148.97 112.35 148.97 114.44 156.88 119.36 159.39 125.7 157.99 133.91 156.19 138.72 150.3 138.72 142.99 138.72 129.68 121.29 133.04 121.29 126.62 121.29 123.73 122.82 121.63 125.59 121.02ZM 139.57 111.82C 139.57 111.82 139.57 119.01 139.57 119.01 139.57 119.01 148.68 117 148.68 117 148.68 117 148.67 152.35 148.67 152.35 148.67 152.35 156.48 150.63 156.48 150.63 156.48 150.63 156.48 115.29 156.48 115.29 156.48 115.29 165.59 113.28 165.59 113.28 165.59 113.28 165.6 106.09 165.6 106.09 165.6 106.09 139.57 111.82 139.57 111.82ZM 192.91 112.81C 192.91 104.8 188.45 101.07 179.05 103.13 179.05 103.13 167.73 105.62 167.73 105.62 167.73 105.62 167.73 148.16 167.73 148.16 167.73 148.16 175.54 146.44 175.54 146.44 175.54 146.44 175.54 129.12 175.54 129.12 175.54 129.12 179.28 128.3 179.28 128.3 179.28 128.3 186.06 144.12 186.06 144.12 186.06 144.12 194.44 142.28 194.44 142.28 194.44 142.28 186.75 125.01 186.75 125.01 191.1 122.34 192.91 118.11 192.91 112.81ZM 196.58 99.28C 196.58 99.28 196.58 141.81 196.58 141.81 196.58 141.81 204.39 140.09 204.39 140.09 204.39 140.09 204.39 97.56 204.39 97.56 204.39 97.56 196.58 99.28 196.58 99.28ZM 218.82 94.39C 218.82 94.39 207.95 96.78 207.95 96.78 207.95 96.78 207.95 139.31 207.95 139.31 207.95 139.31 218.82 136.92 218.82 136.92 227.76 134.95 232.74 129.85 233.08 119.05 233.08 119.05 233.08 105.98 233.08 105.98 232.74 95.33 227.76 92.42 218.82 94.39ZM 257.95 121.12C 257.95 121.12 243.81 124.23 243.81 124.23 243.81 124.23 243.81 113.04 243.81 113.04 243.81 113.04 254.16 110.76 254.16 110.76 254.16 110.76 254.16 103.58 254.16 103.58 254.16 103.58 243.81 105.85 243.81 105.85 243.81 105.85 243.81 96.07 243.81 96.07 243.81 96.07 257.39 93.09 257.39 93.09 257.39 93.09 257.39 85.9 257.39 85.9 257.39 85.9 236 90.61 236 90.61 236 90.61 236 133.14 236 133.14 236 133.14 257.95 128.31 257.95 128.31 257.95 128.31 257.95 121.12 257.95 121.12ZM 218.48 129.81C 218.48 129.81 215.76 130.4 215.76 130.4 215.76 130.4 215.76 102.25 215.76 102.25 215.76 102.25 218.48 101.65 218.48 101.65 223.35 100.58 225.27 102.63 225.27 108.64 225.27 108.64 225.27 119.83 225.27 119.83 225.27 126.19 222.78 128.86 218.48 129.81ZM 179.56 121.52C 179.56 121.52 175.54 122.4 175.54 122.4 175.54 122.4 175.54 110.62 175.54 110.62 175.54 110.62 179.56 109.74 179.56 109.74 183.01 108.98 185.11 110.29 185.11 114.41 185.1 118.53 183.01 120.76 179.56 121.52Z" fill="rgb(255,255,255)"/></svg>