<svg xmlns="http://www.w3.org/2000/svg" width="227" height="239" viewBox="0 0 227 239"><path d="M220.1 232.14h-2.82v3.82h1.15v2.74h-5.97v-2.74h1.16v-13.52h-1.16v-2.73h7.66c8.87 0 8.92 12.43-.02 12.43zm-.54-9.7h-2.28v6.96h2.28s3.56 0 3.56-3.46c0-3.5-3.56-3.5-3.56-3.5zm-41.18-32.89H59.5l16.18-31.92H162l-16.17-31.52H91.66l15.97-31.53h22.03L97.79 32.06 114.04 0l96.24 189.55h-23.79-8.11zm-95.73-63.44h-.08L66.5 157.63h.23l-16.11 31.92h-.38-31.9L93.47 40.74l16.19 31.87-27.01 53.5zm-59.57 94.3l-2.07 2.16c3.45.73 3.18 5.71-.91 5.71-1.09 0-2.21-.5-2.66-1.57l1.29-.49c.73 1.17 2.93.8 2.93-.74 0-1.59-1.34-2.11-2.84-1.45v-1l2.47-2.62h-2.66v.53h-1.24v-1.84h5.69v1.31zM18.5 238.7h-3.92l-1.64-4.74H6.38l-1.69 4.74H.79v-2.74h1.13l6-16.25h3.43l6.02 16.25h1.13v2.74zm-8.84-14.05l-2.33 6.58h4.63l-2.3-6.58zm39.33.96c0 4.91-3.1 5.39-3.1 5.39 1.87 2.18 1.59 4.66 4.44 4.96v2.74c-1.52.48-3.85.4-4.8-1.17l-3.27-5.92h-2.64v4.35h1.18v2.74h-6.02v-2.74h1.17v-13.52h-1.17v-2.73h7.58c1.79 0 6.63-.05 6.63 5.9zm-9.37 3.26h2.74c0-.02 2.97.23 2.97-3.21 0-3.45-2.97-3.22-2.97-3.22h-2.74v6.43zm27.84-5.31h-2.64v-1.12h-6.94v5.32h6.4v2.61h-6.4v5.59h6.94v-1.11h2.64v3.85H53.09v-2.74h1.12v-13.52h-1.12v-2.73h14.37v3.85zm17.23 0h-2.64v-1.12h-2.79v13.52h1.15v2.74h-5.92v-2.74h1.13v-13.52h-2.77v1.12h-2.64v-3.85h14.48v3.85zm6.5-3.85h3.44l6.02 16.25h1.12v2.74h-3.92l-1.64-4.74h-6.56l-1.69 4.74h-3.89v-2.74h1.13l5.99-16.25zm4.05 11.52l-2.31-6.58-2.33 6.58h4.64zm14.9-8.79h-1.13v13.52h1.13v2.74h-5.92v-2.74h1.13v-13.52h-1.13v-2.73h5.92v2.73zm8.81 0h-1.15v13.52h5.27v-1.06h2.62v3.8h-12.68v-2.74h1.12v-13.52h-1.12v-2.73h5.94v2.73zm25.56-3.29c2.43 0 4.89.43 7.04 1.29v2.86h-2.66v-.83c-1.59-.28-2.97-.33-4.2-.16-3.62.46-5.49 3.12-5.49 6.44 0 3.39 2.41 7.21 6.28 7.21h2.38c0-1.04.03-3.44.03-4.15h-1.1v-2.63h4.76v9.52h-6.07c-4.38 0-8.07-1.9-9.43-5.95-.9-2.56-.74-6.38.41-8.89 1.54-3.17 4.61-4.71 8.05-4.71zm24.12 6.46c0 4.91-3.1 5.39-3.1 5.39 1.87 2.18 1.59 4.66 4.44 4.96v2.74c-1.52.48-3.85.4-4.8-1.17l-3.28-5.92h-2.64v4.35h1.18v2.74h-6.02v-2.74h1.18v-13.52h-1.18v-2.73H162c1.79 0 6.63-.05 6.63 5.9zm-9.38 3.26H162c0-.02 2.97.23 2.97-3.21 0-3.45-2.97-3.22-2.97-3.22h-2.75v6.43zm21.67-9.44c9.56 0 9.15 9.92 9.15 9.92s.18 9.65-9.15 9.65c0 0-9.1.46-9.1-9.6 0 0-.28-9.97 9.1-9.97zm.1 16.58c7-.07 7-13.52-.1-13.52-7.12 0-7.02 13.6.1 13.52zm18.16-13.57h-1.1v11.25s0 2.27 3.12 2.27c3.43 0 3.41-2.27 3.41-2.27v-11.25h-1.13v-2.73h5.87v2.73h-1.08v12.18c0 3.01-3.1 4.33-7.02 4.33-3.87 0-6.84-1.34-6.84-4.35v-12.16h-1.13v-2.73h5.9v2.73z" fill="#FFF"/></svg>