<svg xmlns="http://www.w3.org/2000/svg" width="285" height="190" viewBox="0 0 285 190"><path d="M270.72 154.05c-.38-2.05-.98-3.5-1.8-4.31-1.32-1.32-3.59-2-6.72-2-3.08 0-5.22.51-6.42 1.54-.9.76-1.37 1.83-1.37 3.15 0 1.88 2.61 3.37 7.79 4.52 5.91 1.28 10.15 2.39 12.76 3.28.69.26 1.29.47 1.71.69 5.27 2.47 7.88 6.22 7.88 11.25 0 6.14-2.57 10.62-7.66 13.44-.64.34-1.24.64-1.93.93-3.3 1.41-7.15 2.14-11.47 2.14-6.47 0-11.69-1.16-15.67-3.42-5.01-2.9-7.5-7.29-7.5-13.17h13.02c0 2.22.81 3.96 2.4 5.16 1.58 1.23 4.28 1.87 8.09 1.87 2.87 0 5.01-.59 6.42-1.79 1.11-.94 1.63-1.96 1.63-3.15 0-2.01-2.57-3.58-7.67-4.69-7.62-1.62-12.41-2.94-14.38-3.88-5.23-2.43-7.79-6.19-7.79-11.39 0-4.18 1.32-7.72 4.06-10.62 3.43-3.62 8.57-5.41 15.37-5.41 5.61 0 10.11.81 13.49 2.39.3.12.56.25.81.42 4.89 2.65 7.37 7 7.37 13.05h-8.18-4.24zm7.97-22.17c-1.2.68-2.4.98-3.69.98h-.04c-1.28 0-2.48-.3-3.68-.98-1.2-.64-2.1-1.54-2.74-2.73-.69-1.19-.99-2.43-.99-3.67 0-1.32.3-2.56.99-3.75.68-1.19 1.58-2.09 2.78-2.73 1.2-.64 2.4-.94 3.64-.98h.04c1.25 0 2.44.34 3.64.98 1.2.64 2.14 1.54 2.79 2.73.68 1.19.98 2.43.98 3.75 0 1.24-.3 2.48-.98 3.67-.65 1.19-1.55 2.09-2.74 2.73zm1.67-9.51c-.56-.98-1.33-1.75-2.32-2.3-.98-.51-2.01-.81-3.04-.81h-.04c-1.03 0-2.05.3-3.04.81-.98.55-1.75 1.32-2.31 2.3-.56.98-.86 2-.86 3.11 0 1.07.3 2.09.86 3.07.51.94 1.28 1.71 2.27 2.26.98.56 2.01.81 3.08.81h.04c1.07 0 2.1-.25 3.09-.81.98-.55 1.75-1.32 2.27-2.26.55-.98.81-2 .81-3.07 0-1.11-.26-2.13-.81-3.11zm-4.2 5.93c-.47-.81-.86-1.41-1.2-1.71-.04-.04-.09-.08-.17-.13-.21-.21-.56-.29-1.03-.29h-.77v3.41h-1.28v-8.02h2.78c.17 0 .34.04.47.04.69 0 1.2.09 1.54.22.43.12.77.38 1.03.76.26.34.38.73.38 1.15 0 .6-.21 1.11-.64 1.54-.43.42-.98.68-1.67.72.3.13.52.26.69.43.3.3.73.85 1.2 1.58l.94 1.58h-1.54l-.73-1.28zm-.04-3.59c.25-.21.38-.51.38-.85 0-.25-.04-.47-.17-.64-.13-.21-.3-.34-.56-.42-.17-.05-.42-.09-.81-.13h-.47-1.5v2.39H274.96c.56-.05.94-.13 1.16-.35zm-87.86-1.15l-33.57-55.73-25.43-42.17 25.43-15.22L170.7.84l38.88 64.39 35.15 58.33h-35.15-21.32zm-19.78 0h-13.79-42.64L80.71 71.63l-1.37-2.26 1.37-.81 40.11-24.05 33.87 56.11 13.79 22.94zm-76.21 0H80.71 35.79l-6.33-10.53 41.48-24.82 9.77 16.17 11.56 19.18zm-53.14 16.46h11.69v47.97H39.13v-2.64c-3.98 2.56-8.69 4.05-13.74 4.05h-.13C11.35 189.32 0 177.97 0 164.07c0-13.9 11.35-25.24 25.26-25.33h.13c5.05 0 9.76 1.5 13.74 4.05v-2.77zm-13.74 10.15h-.13c-7.62.04-13.83 6.27-13.83 13.9 0 7.63 6.21 13.86 13.83 13.95h.13c6.81 0 12.5-4.91 13.74-11.3v-5.29c-1.24-6.4-6.93-11.26-13.74-11.26zm55.32-11.43h.13c5.05 0 9.76 1.5 13.74 4.05v-19.23h11.69v64.43H94.58v-2.64c-3.98 2.56-8.69 4.05-13.74 4.05h-.13c-13.96-.08-25.31-11.43-25.31-25.33 0-13.9 11.35-25.24 25.31-25.33zm0 39.28h.13c6.8 0 12.5-4.91 13.74-11.3v-5.29c-1.24-6.4-6.94-11.26-13.74-11.26h-.13c-7.67.04-13.88 6.27-13.88 13.9 0 7.63 6.21 13.86 13.88 13.95zm44.1-43.07h-12.72v-11.13h12.72v11.13zm0 53.04h-12.72v-49.25h12.72v49.25zm29.88-49.25h.13c5.05 0 9.72 1.5 13.7 4.05v-19.23h11.69v64.43h-11.69v-2.64c-3.98 2.56-8.65 4.05-13.7 4.05h-.13c-13.96-.08-25.3-11.43-25.3-25.33 0-13.9 11.34-25.24 25.3-25.33zm0 39.28h.13c6.77 0 12.46-4.91 13.7-11.3v-5.29c-1.24-6.4-6.93-11.26-13.7-11.26h-.13c-7.66.04-13.87 6.27-13.87 13.9 0 7.63 6.21 13.86 13.87 13.95zm54.89-39.28h.13c5.05 0 9.76 1.5 13.7 4.05v-2.77h11.69v47.97h-11.69v-2.64c-3.94 2.56-8.65 4.05-13.7 4.05h-.13c-13.96-.08-25.3-11.43-25.3-25.33 0-13.9 11.34-25.24 25.3-25.33zm0 39.28h.13c6.76 0 12.46-4.91 13.7-11.3v-5.29c-1.24-6.4-6.94-11.26-13.7-11.26h-.13c-7.66.04-13.87 6.27-13.87 13.9 0 7.63 6.21 13.86 13.87 13.95z" fill="#FFF"/></svg>