<?xml version="1.0" encoding="utf-8"?>
<!-- Generator: Adobe Illustrator 19.0.0, SVG Export Plug-In . SVG Version: 6.00 Build 0)  -->
<svg version="1.1" id="Layer_1" xmlns="http://www.w3.org/2000/svg" xmlns:xlink="http://www.w3.org/1999/xlink" x="0px" y="0px"
	 viewBox="0 0 841.9 595.3" style="enable-background:new 0 0 841.9 595.3;" xml:space="preserve">
<g id="XMLID_8_">
	<path id="XMLID_55_" d="M120.2,228.5v96.6H722v-96.6H120.2z M715,318.2H127.2v-82.7H715V318.2z"/>
	<polygon id="XMLID_54_" points="163.4,272.9 179.4,291.6 195.3,272.9 195.3,302.3 203.3,302.3 203.3,251.3 179.4,279.3 
		155.4,251.3 155.4,302.3 163.4,302.3 	"/>
	<path id="XMLID_51_" d="M239.5,285.1h5.8l12.8,17.2h9l-13.7-18.4c2.7-1,4.7-2.5,5.9-3.9c2.7-2.9,4.1-7.1,4.1-11.7
		c0-4.7-1.4-8.9-4.1-11.8c-2.1-2.3-6-5.1-12.7-5.1h-8.4h-6.7v50.9h8V285.1z M239.5,258.5h7.1c3.3,0,5.8,0.9,7.3,2.7
		c1.9,2.1,2.3,5,2.3,7c0,2-0.4,4.9-2.3,6.9c-1.6,1.8-4.1,2.8-7.3,2.8h-7.1V258.5z"/>
	<path id="XMLID_50_" d="M294.1,302.3c2.6,0,4.8-2.1,4.8-4.8c0-2.6-2.2-4.8-4.8-4.8c-2.7,0-4.8,2.2-4.8,4.8
		C289.3,300.2,291.5,302.3,294.1,302.3z"/>
	<path id="XMLID_46_" d="M342.5,302.3c6,0,9.5-2.5,11.3-4.5c2.4-2.7,3.7-6.3,3.7-10.5c0-4.2-1.3-7.8-3.7-10.4
		c-0.7-0.8-1.6-1.7-2.9-2.4c1.9-2.4,2.8-5.5,2.8-9.1c0-3.9-1.2-7.3-3.4-9.8c-1.8-2-5.1-4.2-10.6-4.2h-6.6h-8v50.9h7.1H342.5z
		 M350.3,287.2c0,1.7-0.3,4-1.8,5.7c-1.3,1.4-3.4,2.1-6,2.1h-9.4v-15.6h9.4c2.7,0,4.7,0.7,6,2.1C350,283.3,350.3,285.6,350.3,287.2z
		 M333.1,258.5h6.6c2.4,0,4.1,0.7,5.3,1.9c1.3,1.4,1.6,3.5,1.6,4.9c0,1.5-0.3,3.6-1.6,5c-1.2,1.2-2.9,1.9-5.3,1.9h-6.6V258.5z"/>
	<path id="XMLID_43_" d="M390.4,285.1h5.8l12.8,17.2h9l-13.7-18.4c2.7-1,4.7-2.5,5.9-3.9c2.7-2.9,4.1-7.1,4.1-11.7
		c0-4.7-1.4-8.9-4.1-11.8c-2.1-2.3-6-5.1-12.7-5.1h-8.4h-6.7v50.9h8V285.1z M390.4,258.5h7.1c3.3,0,5.8,0.9,7.3,2.7
		c1.9,2.1,2.3,5,2.3,7c0,2-0.3,4.9-2.3,6.9c-1.6,1.8-4,2.8-7.3,2.8h-7.1V258.5z"/>
	<path id="XMLID_40_" d="M447.7,294.8c2.3,2.3,5,4.2,8.1,5.5c3.1,1.3,6.5,2,9.9,2c3.4,0,6.8-0.7,10-2c3-1.3,5.7-3.2,8.1-5.5
		c2.3-2.3,4.1-5,5.4-8.1c1.3-3.1,2-6.5,2-9.9c0-3.4-0.7-6.8-2-10c-1.3-3-3.1-5.7-5.4-8.1c-2.4-2.3-5.1-4.1-8.1-5.4
		c-3.2-1.3-6.5-2-10-2c-3.4,0-6.8,0.7-9.9,2c-3.1,1.3-5.8,3.1-8.1,5.4c-2.3,2.4-4.2,5.1-5.5,8.1c-1.3,3.2-2,6.5-2,10
		c0,3.4,0.7,6.8,2,9.9C443.5,289.8,445.4,292.5,447.7,294.8z M453.3,264.5c3.3-3.3,7.7-5.2,12.4-5.2c4.7,0,9.1,1.9,12.4,5.2
		c3.3,3.3,5.2,7.7,5.2,12.4c0,4.7-1.9,9.1-5.2,12.4c-3.3,3.3-7.7,5.1-12.4,5.1c-4.7,0-9.1-1.9-12.4-5.1c-3.3-3.3-5.2-7.7-5.2-12.4
		C448.2,272.1,450,267.7,453.3,264.5z"/>
	<path id="XMLID_37_" d="M522.4,294.8c2.3,2.3,5,4.2,8.1,5.5c3.1,1.3,6.4,2,9.9,2c3.4,0,6.8-0.7,10-2c3-1.3,5.7-3.2,8.1-5.5
		c2.3-2.3,4.1-5,5.4-8.1c1.3-3.1,2-6.5,2-9.9c0-3.4-0.7-6.8-2-10c-1.3-3-3.1-5.7-5.4-8.1c-2.4-2.3-5.1-4.1-8.1-5.4
		c-3.2-1.3-6.5-2-10-2c-3.4,0-6.8,0.7-9.9,2c-3.1,1.3-5.8,3.1-8.1,5.4c-2.3,2.4-4.2,5.1-5.5,8.1c-1.3,3.2-2,6.5-2,10
		c0,3.4,0.7,6.8,2,9.9C518.2,289.8,520.1,292.5,522.4,294.8z M528.1,264.5c3.3-3.3,7.7-5.2,12.4-5.2c4.7,0,9.1,1.9,12.4,5.2
		c3.3,3.3,5.1,7.7,5.1,12.4c0,4.7-1.9,9.1-5.1,12.4c-3.3,3.3-7.7,5.1-12.4,5.1c-4.7,0-9.1-1.9-12.4-5.1c-3.3-3.3-5.1-7.7-5.1-12.4
		C522.9,272.1,524.8,267.7,528.1,264.5z"/>
	<polygon id="XMLID_36_" points="600,279.2 620.2,302.3 630.1,302.3 607.7,275.9 626.3,251.3 616.3,251.3 600,272.3 600,251.3 
		592,251.3 592,302.3 600,302.3 	"/>
	<path id="XMLID_35_" d="M675.2,292.8c-2.2,1.4-4.9,2.1-8,1.8c-3.8-0.3-7.8-2-12-5l-4.5,6.1c5.3,3.9,10.6,6,15.9,6.5
		c0.6,0,1.3,0.1,1.9,0.1c4,0,7.7-1.1,10.9-3.2c2.7-1.8,4.7-4.2,6-7c1.3-2.9,1.6-6,1-8.9c-0.8-3.1-2.6-5.8-5.4-7.8
		c-2.8-2.1-6.5-3.4-11-4c-4.7-0.6-7.8-2.5-8.6-5.4c-0.3-1-0.2-2,0.1-3.1c0.4-1,1.1-2,2-2.7c1.2-0.9,2.7-1.4,4.5-1.4
		c2.3,0,4.8,0.8,7.5,2.3l3.8-6.4c-3.8-2.3-7.6-3.4-11.2-3.4c-3.5,0-6.5,1-9.1,2.9c-2.1,1.6-3.6,3.7-4.5,6.2c-0.9,2.5-1,5.1-0.3,7.6
		c0.7,2.8,2.5,5.3,5,7.2c2.6,1.9,6,3.1,10,3.6c5.5,0.7,9.1,2.9,9.9,6.1C679.7,287.7,678.2,290.9,675.2,292.8z"/>
	<path id="XMLID_32_" d="M162.3,348.1h-7.1V366h3.3v-6.6h3.8c2.2,0,3.9-0.5,5.1-1.4c1.2-0.9,1.8-2.4,1.9-4.4c0-1.8-0.5-3.2-1.7-4.2
		C166.5,348.5,164.8,348.1,162.3,348.1z M165.1,356c-0.6,0.5-1.5,0.7-2.8,0.7h-3.8v-5.9h3.8c1.2,0,2.1,0.3,2.7,0.7
		c0.6,0.5,0.9,1.2,0.9,2.2C165.9,354.8,165.6,355.5,165.1,356z"/>
	<path id="XMLID_29_" d="M203.2,362.1c0-1.4-0.2-2.5-0.6-3.2c-0.4-0.7-1.1-1.2-2-1.5v-0.1c0.9-0.3,1.7-0.8,2.2-1.5
		c0.5-0.8,0.8-1.7,0.8-2.8c0-1.7-0.5-2.9-1.6-3.7c-1.1-0.8-2.7-1.2-4.9-1.3h-8V366h3.3v-7.1h3.8c1.3,0,2.3,0.2,2.9,0.7
		c0.6,0.5,0.9,1.4,0.9,2.7c0,1.3,0,2.2,0.1,2.6c0.1,0.4,0.2,0.8,0.5,1.2h3.4c-0.3-0.3-0.5-0.6-0.5-1
		C203.2,364.6,203.2,363.6,203.2,362.1z M199.3,355.5c-0.6,0.5-1.5,0.7-2.9,0.7h-4.1v-5.4h4.2c1.3,0,2.2,0.2,2.8,0.6
		c0.6,0.4,0.9,1.1,0.9,2C200.1,354.4,199.9,355,199.3,355.5z"/>
	<rect id="XMLID_28_" x="223.9" y="348.1" width="3.3" height="17.9"/>
	<polygon id="XMLID_27_" points="254,362.6 249.5,348.1 245.9,348.1 252.1,366 255.9,366 262.1,348.1 258.5,348.1 	"/>
	<path id="XMLID_24_" d="M284.3,348.1l-6.8,17.9h3.5l1.3-3.8h7.2l1.3,3.8h3.5l-6.8-17.9H284.3z M283.2,359.5l2.7-8l2.7,8H283.2z"/>
	<polygon id="XMLID_23_" points="309.2,350.8 314.8,350.8 314.8,366 318.1,366 318.1,350.8 323.7,350.8 323.7,348.1 309.2,348.1 	
		"/>
	<polygon id="XMLID_22_" points="346.3,358.1 355.4,358.1 355.4,355.4 346.3,355.4 346.3,350.8 356.4,350.8 356.4,348.1 343,348.1 
		343,366 356.7,366 356.7,363.3 346.3,363.3 	"/>
	<polygon id="XMLID_21_" points="408.5,361.6 403.6,348.1 398.7,348.1 398.7,366 402,366 402,352.5 402,351.8 402,351.8 407.3,366 
		409.7,366 415,351.8 415.1,351.8 415,352.5 415,366 418.3,366 418.3,348.1 413.4,348.1 	"/>
	<path id="XMLID_18_" d="M443.8,348.1l-6.8,17.9h3.5l1.3-3.8h7.2l1.3,3.8h3.5l-6.8-17.9H443.8z M442.8,359.5l2.7-8l2.7,8H442.8z"/>
	<path id="XMLID_15_" d="M486.8,362.1c0-1.4-0.2-2.5-0.6-3.2c-0.4-0.7-1.1-1.2-2-1.5v-0.1c0.9-0.3,1.6-0.8,2.2-1.5
		c0.5-0.8,0.8-1.7,0.8-2.8c0-1.7-0.5-2.9-1.6-3.7c-1.1-0.8-2.7-1.2-4.9-1.3h-8V366h3.3v-7.1h3.8c1.3,0,2.3,0.2,2.9,0.7
		c0.6,0.5,0.9,1.4,0.9,2.7c0,1.3,0,2.2,0.1,2.6c0.1,0.4,0.2,0.8,0.5,1.2h3.4c-0.3-0.3-0.5-0.6-0.5-1
		C486.9,364.6,486.8,363.6,486.8,362.1z M482.9,355.5c-0.6,0.5-1.5,0.7-2.9,0.7H476v-5.4h4.2c1.3,0,2.2,0.2,2.8,0.6
		c0.6,0.4,0.9,1.1,0.9,2C483.8,354.4,483.5,355,482.9,355.5z"/>
	<polygon id="XMLID_14_" points="523.1,348.1 518.6,348.1 510.8,356.1 510.8,348.1 507.5,348.1 507.5,366 510.8,366 510.8,360 
		513.2,357.7 519.2,366 523.6,366 515.6,355.4 	"/>
	<polygon id="XMLID_13_" points="545.6,358.1 554.7,358.1 554.7,355.4 545.6,355.4 545.6,350.8 555.8,350.8 555.8,348.1 
		542.4,348.1 542.4,366 556.1,366 556.1,363.3 545.6,363.3 	"/>
	<polygon id="XMLID_12_" points="573.6,350.8 579.2,350.8 579.2,366 582.5,366 582.5,350.8 588.1,350.8 588.1,348.1 573.6,348.1 	
		"/>
	<rect id="XMLID_11_" x="607.3" y="348.1" width="3.3" height="17.9"/>
	<polygon id="XMLID_10_" points="643.8,360.8 635.2,348.1 631.7,348.1 631.7,366 635,366 635,353.2 643.6,366 647.1,366 
		647.1,348.1 643.8,348.1 	"/>
	<path id="XMLID_9_" d="M676.5,359.1h4.4c0,1.5-0.5,2.6-1.3,3.4c-0.8,0.8-2,1.3-3.4,1.3c-1.6,0-2.9-0.6-4-1.7
		c-1.1-1.1-1.6-2.8-1.6-4.9c0-2.3,0.4-4.1,1.4-5.2c0.9-1.2,2.2-1.7,3.9-1.7c1.3,0,2.4,0.3,3.1,0.9c0.8,0.6,1.2,1.4,1.3,2.4h3.3
		c-0.2-2-1-3.6-2.3-4.6c-1.4-1-3.2-1.5-5.4-1.5c-2.9,0-5.1,0.9-6.6,2.6c-1.5,1.7-2.3,4.1-2.3,7.2c0,2.9,0.8,5.2,2.3,6.8
		c1.6,1.6,3.7,2.4,6.4,2.4c1.3,0,2.5-0.2,3.4-0.8c0.9-0.5,1.6-1.2,2.1-2.2h0.1v2.4h2.4v-9.6h-7.3V359.1z"/>
</g>
</svg>
