<svg xmlns="http://www.w3.org/2000/svg" width="291" height="203" viewBox="0 0 291 203"><path d="M7.86 157.56L.81 125.4 120.6 82.05 183.56.93l90.21 57.78 16.91 144.04L7.86 157.56zm117.73-36.54c2.72-.6 4.41.74 5.72 4.46l7.01-3.67c-1.36-5.71-5.6-9.07-12.56-7.54-8.09 1.78-12.28 7.29-12.28 14.6 0 11.9 17.43 8.18 17.43 16.19 0 3.19-2.1 5.53-4.81 6.13-2.32.51-5.15-.69-6.06-5.62l-7.69 3.4c2.09 7.91 7.01 10.42 13.35 9.02 8.21-1.8 13.02-7.69 13.02-15 0-13.31-17.43-9.95-17.43-16.37 0-2.89 1.53-4.99 4.3-5.6zm13.98-9.2v7.19l9.11-2.01-.01 35.35 7.81-1.72v-35.34l9.11-2.01.01-7.19-26.03 5.73zm53.34.99c0-8.01-4.46-11.74-13.86-9.68l-11.32 2.49v42.54l7.81-1.72v-17.32l3.74-.82 6.78 15.82 8.38-1.84-7.69-17.27c4.35-2.67 6.16-6.9 6.16-12.2zm3.67-13.53v42.53l7.81-1.72V97.56l-7.81 1.72zm22.24-4.89l-10.87 2.39v42.53l10.87-2.39c8.94-1.97 13.92-7.07 14.26-17.87v-13.07c-.34-10.65-5.32-13.56-14.26-11.59zm39.13 26.73l-14.14 3.11v-11.19l10.35-2.28v-7.18l-10.35 2.27v-9.78l13.58-2.98V85.9L236 90.61v42.53l21.95-4.83v-7.19zm-39.47 8.69l-2.72.59v-28.15l2.72-.6c4.87-1.07 6.79.98 6.79 6.99v11.19c0 6.36-2.49 9.03-6.79 9.98zm-38.92-8.29l-4.02.88v-11.78l4.02-.88c3.45-.76 5.55.55 5.55 4.67-.01 4.12-2.1 6.35-5.55 7.11z" fill="#FFF"/></svg>